<?xml version="1.0" standalone="no"?>
<!DOCTYPE svg PUBLIC "-//W3C//DTD SVG 20010904//EN"
 "http://www.w3.org/TR/2001/REC-SVG-20010904/DTD/svg10.dtd">
<svg version="1.0" xmlns="http://www.w3.org/2000/svg"
 width="353.000000pt" height="122.000000pt" viewBox="0 0 353.000000 122.000000"
 preserveAspectRatio="xMidYMid meet">

<g transform="translate(0.000000,122.000000) scale(0.100000,-0.100000)"
fill="#083344" stroke="none">
<path d="M427 990 c-5 -19 -14 -20 -121 -20 -96 0 -116 -3 -116 -15 0 -12 19
-15 115 -15 l115 0 0 -25 0 -24 -152 -3 c-128 -3 -153 -5 -153 -18 0 -13 25
-15 158 -18 157 -2 158 -3 155 -25 -3 -21 -8 -22 -123 -27 -70 -3 -120 -9
-120 -15 0 -6 50 -12 120 -15 98 -4 120 -8 120 -20 0 -12 -23 -16 -130 -20
-107 -4 -130 -8 -130 -20 0 -12 21 -15 125 -17 l125 -1 3 -26 3 -26 -150 0
c-128 0 -151 -2 -151 -15 0 -13 44 -15 340 -15 296 0 340 2 340 15 0 13 -24
15 -160 15 l-160 0 0 25 0 24 138 3 c114 3 137 6 137 18 0 12 -23 15 -138 18
-125 2 -138 4 -135 20 3 15 19 17 125 20 l122 3 3 37 c3 34 6 37 38 42 44 6
48 34 5 38 -35 4 -45 16 -45 55 l0 27 -120 0 c-109 0 -120 2 -130 20 -6 11
-19 20 -29 20 -10 0 -21 -9 -24 -20z m258 -75 c0 -18 -8 -20 -99 -23 -101 -3
-121 4 -109 35 4 11 28 13 107 11 93 -3 101 -5 101 -23z m3 -87 c-3 -22 -8
-23 -99 -26 -75 -2 -99 1 -108 12 -24 28 -2 36 105 36 104 0 105 0 102 -22z"/>
<path d="M1072 918 c-22 -29 -74 -90 -116 -136 -42 -45 -76 -91 -76 -101 0
-11 19 -42 43 -69 23 -28 82 -97 131 -155 85 -101 107 -116 120 -81 5 13 -169
223 -217 263 -35 29 -21 60 71 155 101 104 127 139 118 161 -10 27 -33 16 -74
-37z"/>
<path d="M1995 917 c-3 -7 -4 -129 -3 -272 3 -223 5 -260 18 -260 13 0 15 38
18 273 2 240 0 272 -13 272 -9 0 -18 -6 -20 -13z"/>
<path d="M1515 898 c-3 -7 -4 -126 -3 -263 l3 -250 123 -3 c104 -2 129 0 167
17 57 25 77 56 77 125 1 62 -18 100 -58 118 -30 14 -30 21 0 51 50 50 42 147
-17 191 -25 18 -45 21 -158 25 -102 2 -130 0 -134 -11z m277 -56 c34 -34 32
-102 -5 -139 -26 -26 -33 -28 -132 -31 l-105 -4 0 102 0 102 110 -4 c98 -3
112 -5 132 -26z m-44 -212 c63 0 92 -32 92 -103 0 -45 -4 -58 -26 -78 -24 -22
-35 -24 -145 -27 l-119 -4 0 106 0 105 43 4 c23 2 58 3 77 1 19 -2 54 -4 78
-4z"/>
<path d="M2243 751 c-117 -54 -139 -241 -38 -329 141 -125 343 4 305 194 -12
59 -58 120 -106 140 -46 19 -111 17 -161 -5z m173 -46 c83 -63 81 -207 -4
-269 -38 -29 -119 -32 -160 -7 -71 45 -94 148 -52 230 40 79 144 101 216 46z"/>
<path d="M2690 752 c-116 -58 -133 -243 -31 -335 64 -58 169 -58 222 -1 31 33
39 30 39 -13 0 -48 -30 -97 -71 -119 -32 -16 -123 -16 -176 1 -17 5 -23 3 -23
-7 0 -21 46 -39 110 -45 44 -4 64 0 100 19 90 46 103 94 98 353 -3 134 -5 160
-18 160 -9 0 -16 -11 -18 -27 -3 -29 -26 -38 -35 -15 -16 43 -136 60 -197 29z
m150 -34 c56 -29 80 -74 80 -148 0 -94 -60 -160 -146 -160 -155 0 -204 236
-64 308 24 12 54 22 65 22 11 0 41 -10 65 -22z"/>
<path d="M3136 755 c-41 -21 -55 -44 -56 -86 0 -53 25 -77 115 -108 87 -31
122 -63 110 -100 -10 -32 -61 -54 -112 -48 -38 4 -56 13 -109 52 -7 5 -16 6
-21 2 -20 -20 56 -82 114 -93 44 -8 109 11 139 41 18 18 24 35 24 65 0 53 -31
83 -108 106 -107 31 -133 55 -113 107 19 50 111 59 166 15 32 -25 58 -11 34
18 -35 42 -129 57 -183 29z"/>
<path d="M204 557 c-2 -7 -3 -58 -2 -113 3 -93 4 -99 23 -95 11 3 114 6 229 8
147 3 212 0 222 -8 8 -6 21 -9 29 -5 13 5 15 24 13 113 l-3 108 -253 3 c-203
2 -253 0 -258 -11z m464 -49 l-3 -23 -210 0 -210 0 -3 23 -3 22 216 0 216 0
-3 -22z m0 -82 c2 -10 -2 -22 -10 -27 -15 -10 -378 -12 -402 -3 -16 6 -22 35
-9 48 4 3 99 5 212 4 192 -3 206 -4 209 -22z"/>
</g>
</svg>
