<?xml version="1.0" encoding="utf-8"?>
<svg viewBox="155.362 42.007 132.248 125" xmlns="http://www.w3.org/2000/svg">
  <g>
    <ellipse style="fill: rgb(255, 247, 247); stroke: rgb(255, 255, 255); transform-box: fill-box; transform-origin: 18.9873% 3.89586%;" cx="221.486" cy="104.507" rx="66.124" ry="62.5"/>
    <path d="M 199.638 70.725 C 199.038 71.925 196.138 72.425 187.138 72.925 C 171.538 73.725 171.838 75.625 187.438 76.025 C 198.738 76.325 200.838 76.925 199.738 79.925 C 199.338 80.925 195.738 81.225 183.938 81.225 C 169.938 81.225 165.538 81.925 168.438 83.725 C 169.038 84.125 176.138 84.425 184.238 84.525 C 197.738 84.725 198.938 84.925 199.238 86.625 C 199.838 89.725 197.438 90.325 186.438 90.025 C 177.638 89.725 175.938 89.925 175.938 91.225 C 175.938 92.425 178.038 92.825 187.738 93.025 C 198.538 93.225 199.438 93.425 199.438 95.225 C 199.438 97.025 198.538 97.225 186.238 97.425 C 169.838 97.825 168.138 99.625 183.938 99.925 C 197.338 100.225 199.438 100.725 199.438 103.125 C 199.438 105.925 197.338 106.325 182.638 106.125 C 175.338 106.125 169.038 106.225 168.738 106.525 C 168.438 106.825 168.538 107.525 168.938 108.125 C 169.738 109.525 236.038 109.625 236.938 108.325 C 238.138 106.325 234.638 105.825 222.438 106.125 C 207.438 106.425 204.238 105.825 204.638 102.825 C 204.938 100.825 205.538 100.725 218.738 100.425 C 229.838 100.225 232.438 99.925 232.438 98.725 C 232.438 97.525 229.838 97.225 218.738 97.025 C 206.638 96.725 204.938 96.525 204.638 95.025 C 204.338 93.425 205.638 93.225 217.138 93.025 L 229.938 92.725 L 230.438 88.725 C 230.938 85.025 231.238 84.725 234.238 84.425 C 238.838 83.925 238.538 81.225 233.938 81.225 C 230.538 81.225 230.438 81.125 230.438 77.325 L 230.438 73.425 L 218.338 73.025 C 208.438 72.725 205.938 72.325 204.938 70.925 C 203.438 68.825 200.838 68.725 199.638 70.725 Z M 225.438 78.725 L 225.438 81.225 L 214.938 81.225 L 204.438 81.225 L 204.438 78.725 L 204.438 76.225 L 214.938 76.225 L 225.438 76.225 L 225.438 78.725 Z M 224.938 87.225 C 224.938 89.725 224.838 89.725 215.138 90.025 C 207.138 90.225 205.338 90.025 204.838 88.725 C 204.538 87.925 204.538 86.525 204.838 85.725 C 205.338 84.425 207.138 84.225 215.138 84.425 C 224.838 84.725 224.938 84.725 224.938 87.225 Z" style="fill: rgb(8, 47, 73);"/>
    <path d="M 264.538 77.725 C 262.738 80.225 257.738 86.025 253.338 90.625 C 242.838 101.725 242.838 102.325 253.338 113.625 C 257.738 118.325 263.438 124.925 266.038 128.225 C 269.038 132.025 271.338 134.125 272.238 133.725 C 272.938 133.425 273.838 133.225 274.038 133.225 C 274.238 133.225 274.438 132.625 274.438 131.825 C 274.438 130.525 253.738 106.125 251.438 104.725 C 249.038 103.225 250.938 99.925 258.038 92.525 C 270.238 80.125 272.938 76.525 271.438 74.725 C 269.438 72.325 267.938 72.925 264.538 77.725 Z" style="fill: rgb(8, 47, 73);"/>
    <path d="M 176.438 124.225 C 176.438 134.125 176.638 135.225 178.238 135.225 C 179.238 135.225 180.538 134.725 181.038 134.225 C 182.238 133.025 221.238 133.425 225.738 134.625 L 228.438 135.425 L 228.438 124.325 L 228.438 113.225 L 202.438 113.225 L 176.438 113.225 L 176.438 124.225 Z M 223.838 117.925 C 224.238 118.825 224.138 119.925 223.638 120.425 C 222.438 121.625 182.438 121.625 181.238 120.425 C 180.738 119.925 180.638 118.825 181.038 117.925 C 181.538 116.425 183.938 116.225 202.438 116.225 C 220.938 116.225 223.338 116.425 223.838 117.925 Z M 223.838 126.125 C 224.238 126.625 224.138 127.725 223.838 128.625 C 223.338 130.025 220.538 130.225 202.438 130.225 C 181.538 130.225 179.538 129.925 180.838 126.725 C 181.238 125.425 184.938 125.225 202.338 125.225 C 213.838 125.225 223.538 125.625 223.838 126.125 Z" style="fill: rgb(8, 47, 73);"/>
  </g>
</svg>